<svg width="32" height="32" viewBox="0 0 32 32" fill="none" xmlns="http://www.w3.org/2000/svg">
<path d="M2.16988 14.0521C0.971515 14.0521 0 14.9933 0 16.1538V16.2878C0 17.4483 0.971515 18.3894 2.16988 18.3894C3.36825 18.3894 4.33976 17.4508 4.33976 16.2878V16.1513C4.33976 14.9933 3.36989 14.0521 2.16988 14.0521Z" fill="#8273F1"/>
<path d="M31.1048 14.0603L25.5412 8.49673C25.519 8.47454 25.4952 8.45317 25.4714 8.43344C25.4475 8.41454 25.4229 8.39646 25.3982 8.38002C25.2249 8.26817 25.0186 8.21892 24.8135 8.24045C24.6084 8.26198 24.4168 8.35299 24.2705 8.49838L23.3426 9.42551C23.2192 9.54853 23.1475 9.714 23.142 9.88814C23.1365 10.0623 23.1976 10.2319 23.313 10.3625C24.7362 11.9966 25.516 14.0927 25.507 16.2597C25.4979 18.4266 24.7005 20.5161 23.2637 22.1382C23.1878 22.2447 23.1444 22.3709 23.1387 22.5015C23.1387 22.5015 23.1387 22.5081 23.1387 22.5114V22.5508C23.1387 22.5566 23.1387 22.5615 23.1387 22.5673V22.6026V22.6232L23.1437 22.656L23.1486 22.6782C23.1502 22.6886 23.1527 22.6987 23.156 22.7086C23.156 22.7169 23.156 22.7251 23.1626 22.7333C23.1691 22.7415 23.1683 22.7522 23.1716 22.7612L23.1815 22.7867C23.1815 22.7958 23.1881 22.804 23.1922 22.813L23.2053 22.8401C23.2094 22.8475 23.2127 22.8558 23.2168 22.8632L23.2341 22.8911L23.2464 22.9117L23.2686 22.9429L23.2809 22.9585C23.2926 22.974 23.3053 22.9888 23.3187 23.0029L24.2631 23.9473C24.4325 24.1152 24.6613 24.2094 24.8997 24.2094C25.1382 24.2094 25.367 24.1152 25.5363 23.9473L31.0999 18.3837C31.3842 18.1002 31.6099 17.7635 31.764 17.3927C31.9182 17.022 31.9978 16.6245 31.9982 16.223C31.9987 15.8215 31.92 15.4239 31.7667 15.0528C31.6134 14.6817 31.3885 14.3445 31.1048 14.0603V14.0603Z" fill="#8273F1"/>
<path d="M17.3542 7H12.472C11.5732 7 10.8445 7.72862 10.8445 8.62741C10.8445 9.52621 11.5732 10.2548 12.472 10.2548H17.3542C18.253 10.2548 18.9816 9.52621 18.9816 8.62741C18.9816 7.72862 18.253 7 17.3542 7Z" fill="#8273F1"/>
<path d="M17.3542 22.1892H12.472C11.5732 22.1892 10.8445 22.9178 10.8445 23.8166C10.8445 24.7154 11.5732 25.444 12.472 25.444H17.3542C18.253 25.444 18.9816 24.7154 18.9816 23.8166C18.9816 22.9178 18.253 22.1892 17.3542 22.1892Z" fill="#8273F1"/>
<path d="M20.6088 14.5946H9.22189C8.3231 14.5946 7.59448 15.3232 7.59448 16.222C7.59448 17.1208 8.3231 17.8494 9.22189 17.8494H20.6088C21.5076 17.8494 22.2363 17.1208 22.2363 16.222C22.2363 15.3232 21.5076 14.5946 20.6088 14.5946Z" fill="#8273F1"/>
</svg>
